<?xml version="1.0" encoding="UTF-8" standalone="no"?>
<!DOCTYPE svg PUBLIC "-//W3C//DTD SVG 1.1//EN"
 "http://www.w3.org/Graphics/SVG/1.1/DTD/svg11.dtd">
<!-- Generated by graphviz version 5.0.0 (20220707.1540)
 -->
<!-- Title: dependencies Pages: 1 -->
<svg width="764pt" height="247pt"
 viewBox="0.00 0.00 764.00 246.80" xmlns="http://www.w3.org/2000/svg" xmlns:xlink="http://www.w3.org/1999/xlink">
<g id="graph0" class="graph" transform="scale(1 1) rotate(0) translate(4 242.8)">
<title>dependencies</title>
<polygon fill="white" stroke="transparent" points="-4,4 -4,-242.8 760,-242.8 760,4 -4,4"/>
<text text-anchor="middle" x="378" y="-8.2" font-family="sans-serif" font-size="14.00">dependencies</text>
<g id="clust1" class="cluster">
<title>cluster_PageModule</title>
<polygon fill="none" stroke="black" stroke-dasharray="1,5" points="8,-32.8 8,-230.8 748,-230.8 748,-32.8 8,-32.8"/>
</g>
<g id="clust6" class="cluster">
<title>cluster_PageModule_imports</title>
<polygon fill="none" stroke="black" points="518,-40.8 518,-92.8 740,-92.8 740,-40.8 518,-40.8"/>
</g>
<g id="clust7" class="cluster">
<title>cluster_PageModule_exports</title>
<polygon fill="none" stroke="black" points="171,-170.8 171,-222.8 676,-222.8 676,-170.8 171,-170.8"/>
</g>
<g id="clust2" class="cluster">
<title>cluster_PageModule_declarations</title>
<polygon fill="none" stroke="black" points="16,-40.8 16,-92.8 510,-92.8 510,-40.8 16,-40.8"/>
</g>
<!-- PageHomeComponent -->
<g id="node1" class="node">
<title>PageHomeComponent</title>
<polygon fill="#ffffb3" stroke="black" points="502.26,-84.8 359.74,-84.8 359.74,-48.8 502.26,-48.8 502.26,-84.8"/>
<text text-anchor="middle" x="431" y="-62.6" font-family="Times,serif" font-size="14.00">PageHomeComponent</text>
</g>
<!-- PageModule -->
<g id="node4" class="node">
<title>PageModule</title>
<polygon fill="#8dd3c7" stroke="black" points="474.27,-149.8 471.27,-153.8 450.27,-153.8 447.27,-149.8 387.73,-149.8 387.73,-113.8 474.27,-113.8 474.27,-149.8"/>
<text text-anchor="middle" x="431" y="-127.6" font-family="Times,serif" font-size="14.00">PageModule</text>
</g>
<!-- PageHomeComponent&#45;&gt;PageModule -->
<g id="edge1" class="edge">
<title>PageHomeComponent&#45;&gt;PageModule</title>
<path fill="none" stroke="black" d="M431,-84.91C431,-84.91 431,-103.79 431,-103.79"/>
<polygon fill="black" stroke="black" points="427.5,-103.79 431,-113.79 434.5,-103.79 427.5,-103.79"/>
</g>
<!-- PageLoginComponent -->
<g id="node2" class="node">
<title>PageLoginComponent</title>
<polygon fill="#ffffb3" stroke="black" points="341.99,-84.8 200.01,-84.8 200.01,-48.8 341.99,-48.8 341.99,-84.8"/>
<text text-anchor="middle" x="271" y="-62.6" font-family="Times,serif" font-size="14.00">PageLoginComponent</text>
</g>
<!-- PageLoginComponent&#45;&gt;PageModule -->
<g id="edge2" class="edge">
<title>PageLoginComponent&#45;&gt;PageModule</title>
<path fill="none" stroke="black" d="M293.68,-84.83C293.68,-101.2 293.68,-122.8 293.68,-122.8 293.68,-122.8 377.55,-122.8 377.55,-122.8"/>
<polygon fill="black" stroke="black" points="377.55,-126.3 387.55,-122.8 377.55,-119.3 377.55,-126.3"/>
</g>
<!-- PageMessageComponent -->
<g id="node3" class="node">
<title>PageMessageComponent</title>
<polygon fill="#ffffb3" stroke="black" points="181.53,-84.8 24.47,-84.8 24.47,-48.8 181.53,-48.8 181.53,-84.8"/>
<text text-anchor="middle" x="103" y="-62.6" font-family="Times,serif" font-size="14.00">PageMessageComponent</text>
</g>
<!-- PageMessageComponent&#45;&gt;PageModule -->
<g id="edge3" class="edge">
<title>PageMessageComponent&#45;&gt;PageModule</title>
<path fill="none" stroke="black" d="M101.86,-84.91C101.86,-104.14 101.86,-131.8 101.86,-131.8 101.86,-131.8 377.63,-131.8 377.63,-131.8"/>
<polygon fill="black" stroke="black" points="377.63,-135.3 387.63,-131.8 377.63,-128.3 377.63,-135.3"/>
</g>
<!-- PageHomeComponent  -->
<g id="node7" class="node">
<title>PageHomeComponent </title>
<polygon fill="#fb8072" stroke="black" points="668.26,-214.8 521.74,-214.8 521.74,-178.8 668.26,-178.8 668.26,-214.8"/>
<text text-anchor="middle" x="595" y="-192.6" font-family="Times,serif" font-size="14.00">PageHomeComponent </text>
</g>
<!-- PageModule&#45;&gt;PageHomeComponent  -->
<g id="edge6" class="edge">
<title>PageModule&#45;&gt;PageHomeComponent </title>
<path fill="none" stroke="black" stroke-dasharray="5,2" d="M474.51,-140.8C509.71,-140.8 553.44,-140.8 553.44,-140.8 553.44,-140.8 553.44,-168.77 553.44,-168.77"/>
<polygon fill="black" stroke="black" points="549.94,-168.77 553.44,-178.77 556.94,-168.77 549.94,-168.77"/>
</g>
<!-- PageLoginComponent  -->
<g id="node8" class="node">
<title>PageLoginComponent </title>
<polygon fill="#fb8072" stroke="black" points="503.99,-214.8 358.01,-214.8 358.01,-178.8 503.99,-178.8 503.99,-214.8"/>
<text text-anchor="middle" x="431" y="-192.6" font-family="Times,serif" font-size="14.00">PageLoginComponent </text>
</g>
<!-- PageModule&#45;&gt;PageLoginComponent  -->
<g id="edge7" class="edge">
<title>PageModule&#45;&gt;PageLoginComponent </title>
<path fill="none" stroke="black" stroke-dasharray="5,2" d="M431,-149.91C431,-149.91 431,-168.79 431,-168.79"/>
<polygon fill="black" stroke="black" points="427.5,-168.79 431,-178.79 434.5,-168.79 427.5,-168.79"/>
</g>
<!-- PageMessageComponent  -->
<g id="node9" class="node">
<title>PageMessageComponent </title>
<polygon fill="#fb8072" stroke="black" points="340.53,-214.8 179.47,-214.8 179.47,-178.8 340.53,-178.8 340.53,-214.8"/>
<text text-anchor="middle" x="260" y="-192.6" font-family="Times,serif" font-size="14.00">PageMessageComponent </text>
</g>
<!-- PageModule&#45;&gt;PageMessageComponent  -->
<g id="edge8" class="edge">
<title>PageModule&#45;&gt;PageMessageComponent </title>
<path fill="none" stroke="black" stroke-dasharray="5,2" d="M387.36,-140.8C332.9,-140.8 246.84,-140.8 246.84,-140.8 246.84,-140.8 246.84,-168.77 246.84,-168.77"/>
<polygon fill="black" stroke="black" points="243.34,-168.77 246.84,-178.77 250.34,-168.77 243.34,-168.77"/>
</g>
<!-- ServicesModule -->
<g id="node5" class="node">
<title>ServicesModule</title>
<polygon fill="#8dd3c7" stroke="black" points="732.48,-84.8 729.48,-88.8 708.48,-88.8 705.48,-84.8 625.52,-84.8 625.52,-48.8 732.48,-48.8 732.48,-84.8"/>
<text text-anchor="middle" x="679" y="-62.6" font-family="Times,serif" font-size="14.00">ServicesModule</text>
</g>
<!-- ServicesModule&#45;&gt;PageModule -->
<g id="edge4" class="edge">
<title>ServicesModule&#45;&gt;PageModule</title>
<path fill="none" stroke="black" d="M646.82,-84.91C646.82,-104.14 646.82,-131.8 646.82,-131.8 646.82,-131.8 484.41,-131.8 484.41,-131.8"/>
<polygon fill="black" stroke="black" points="484.41,-128.3 474.41,-131.8 484.41,-135.3 484.41,-128.3"/>
</g>
<!-- UtilModule -->
<g id="node6" class="node">
<title>UtilModule</title>
<polygon fill="#8dd3c7" stroke="black" points="607.83,-84.8 604.83,-88.8 583.83,-88.8 580.83,-84.8 526.17,-84.8 526.17,-48.8 607.83,-48.8 607.83,-84.8"/>
<text text-anchor="middle" x="567" y="-62.6" font-family="Times,serif" font-size="14.00">UtilModule</text>
</g>
<!-- UtilModule&#45;&gt;PageModule -->
<g id="edge5" class="edge">
<title>UtilModule&#45;&gt;PageModule</title>
<path fill="none" stroke="black" d="M580.56,-84.83C580.56,-101.2 580.56,-122.8 580.56,-122.8 580.56,-122.8 484.66,-122.8 484.66,-122.8"/>
<polygon fill="black" stroke="black" points="484.66,-119.3 474.66,-122.8 484.66,-126.3 484.66,-119.3"/>
</g>
</g>
</svg>
