<?xml version="1.0" encoding="UTF-8" standalone="no"?>
<!DOCTYPE svg PUBLIC "-//W3C//DTD SVG 1.1//EN"
 "http://www.w3.org/Graphics/SVG/1.1/DTD/svg11.dtd">
<!-- Generated by graphviz version 5.0.0 (20220707.1540)
 -->
<!-- Title: dependencies Pages: 1 -->
<svg width="644pt" height="247pt"
 viewBox="0.00 0.00 644.00 246.80" xmlns="http://www.w3.org/2000/svg" xmlns:xlink="http://www.w3.org/1999/xlink">
<g id="graph0" class="graph" transform="scale(1 1) rotate(0) translate(4 242.8)">
<title>dependencies</title>
<polygon fill="white" stroke="transparent" points="-4,4 -4,-242.8 640,-242.8 640,4 -4,4"/>
<text text-anchor="middle" x="318" y="-8.2" font-family="sans-serif" font-size="14.00">dependencies</text>
<g id="clust1" class="cluster">
<title>cluster_AppModule</title>
<polygon fill="none" stroke="black" stroke-dasharray="1,5" points="8,-32.8 8,-230.8 628,-230.8 628,-32.8 8,-32.8"/>
</g>
<g id="clust2" class="cluster">
<title>cluster_AppModule_declarations</title>
<polygon fill="none" stroke="black" points="498,-40.8 498,-92.8 620,-92.8 620,-40.8 498,-40.8"/>
</g>
<g id="clust4" class="cluster">
<title>cluster_AppModule_imports</title>
<polygon fill="none" stroke="black" points="16,-40.8 16,-92.8 490,-92.8 490,-40.8 16,-40.8"/>
</g>
<g id="clust6" class="cluster">
<title>cluster_AppModule_bootstrap</title>
<polygon fill="none" stroke="black" points="230,-170.8 230,-222.8 354,-222.8 354,-170.8 230,-170.8"/>
</g>
<!-- AppComponent -->
<g id="node1" class="node">
<title>AppComponent</title>
<polygon fill="#ffffb3" stroke="black" points="611.94,-84.8 506.06,-84.8 506.06,-48.8 611.94,-48.8 611.94,-84.8"/>
<text text-anchor="middle" x="559" y="-62.6" font-family="Times,serif" font-size="14.00">AppComponent</text>
</g>
<!-- AppModule -->
<g id="node2" class="node">
<title>AppModule</title>
<polygon fill="#8dd3c7" stroke="black" points="333.66,-149.8 330.66,-153.8 309.66,-153.8 306.66,-149.8 250.34,-149.8 250.34,-113.8 333.66,-113.8 333.66,-149.8"/>
<text text-anchor="middle" x="292" y="-127.6" font-family="Times,serif" font-size="14.00">AppModule</text>
</g>
<!-- AppComponent&#45;&gt;AppModule -->
<g id="edge1" class="edge">
<title>AppComponent&#45;&gt;AppModule</title>
<path fill="none" stroke="black" d="M559,-85.08C559,-106.12 559,-137.8 559,-137.8 559,-137.8 343.72,-137.8 343.72,-137.8"/>
<polygon fill="black" stroke="black" points="343.72,-134.3 333.72,-137.8 343.72,-141.3 343.72,-134.3"/>
</g>
<!-- AppComponent  -->
<g id="node7" class="node">
<title>AppComponent </title>
<polygon fill="#80b1d3" stroke="black" points="346.44,-214.8 237.56,-214.8 237.56,-178.8 346.44,-178.8 346.44,-214.8"/>
<text text-anchor="middle" x="292" y="-192.6" font-family="Times,serif" font-size="14.00">AppComponent </text>
</g>
<!-- AppModule&#45;&gt;AppComponent  -->
<g id="edge6" class="edge">
<title>AppModule&#45;&gt;AppComponent </title>
<path fill="none" stroke="black" stroke-dasharray="1,5" d="M292,-149.91C292,-149.91 292,-168.79 292,-168.79"/>
<polygon fill="black" stroke="black" points="288.5,-168.79 292,-178.79 295.5,-168.79 288.5,-168.79"/>
</g>
<!-- AppRoutingModule -->
<g id="node3" class="node">
<title>AppRoutingModule</title>
<polygon fill="#8dd3c7" stroke="black" points="482.28,-84.8 479.28,-88.8 458.28,-88.8 455.28,-84.8 353.72,-84.8 353.72,-48.8 482.28,-48.8 482.28,-84.8"/>
<text text-anchor="middle" x="418" y="-62.6" font-family="Times,serif" font-size="14.00">AppRoutingModule</text>
</g>
<!-- AppRoutingModule&#45;&gt;AppModule -->
<g id="edge2" class="edge">
<title>AppRoutingModule&#45;&gt;AppModule</title>
<path fill="none" stroke="black" d="M418,-84.82C418,-102.17 418,-125.8 418,-125.8 418,-125.8 343.96,-125.8 343.96,-125.8"/>
<polygon fill="black" stroke="black" points="343.96,-122.3 333.96,-125.8 343.96,-129.3 343.96,-122.3"/>
</g>
<!-- PageModule -->
<g id="node4" class="node">
<title>PageModule</title>
<polygon fill="#8dd3c7" stroke="black" points="335.27,-84.8 332.27,-88.8 311.27,-88.8 308.27,-84.8 248.73,-84.8 248.73,-48.8 335.27,-48.8 335.27,-84.8"/>
<text text-anchor="middle" x="292" y="-62.6" font-family="Times,serif" font-size="14.00">PageModule</text>
</g>
<!-- PageModule&#45;&gt;AppModule -->
<g id="edge3" class="edge">
<title>PageModule&#45;&gt;AppModule</title>
<path fill="none" stroke="black" d="M292,-84.91C292,-84.91 292,-103.79 292,-103.79"/>
<polygon fill="black" stroke="black" points="288.5,-103.79 292,-113.79 295.5,-103.79 288.5,-103.79"/>
</g>
<!-- ServicesModule -->
<g id="node5" class="node">
<title>ServicesModule</title>
<polygon fill="#8dd3c7" stroke="black" points="230.48,-84.8 227.48,-88.8 206.48,-88.8 203.48,-84.8 123.52,-84.8 123.52,-48.8 230.48,-48.8 230.48,-84.8"/>
<text text-anchor="middle" x="177" y="-62.6" font-family="Times,serif" font-size="14.00">ServicesModule</text>
</g>
<!-- ServicesModule&#45;&gt;AppModule -->
<g id="edge4" class="edge">
<title>ServicesModule&#45;&gt;AppModule</title>
<path fill="none" stroke="black" d="M177,-84.82C177,-102.17 177,-125.8 177,-125.8 177,-125.8 240.16,-125.8 240.16,-125.8"/>
<polygon fill="black" stroke="black" points="240.16,-129.3 250.16,-125.8 240.16,-122.3 240.16,-129.3"/>
</g>
<!-- UtilModule -->
<g id="node6" class="node">
<title>UtilModule</title>
<polygon fill="#8dd3c7" stroke="black" points="105.83,-84.8 102.83,-88.8 81.83,-88.8 78.83,-84.8 24.17,-84.8 24.17,-48.8 105.83,-48.8 105.83,-84.8"/>
<text text-anchor="middle" x="65" y="-62.6" font-family="Times,serif" font-size="14.00">UtilModule</text>
</g>
<!-- UtilModule&#45;&gt;AppModule -->
<g id="edge5" class="edge">
<title>UtilModule&#45;&gt;AppModule</title>
<path fill="none" stroke="black" d="M65,-85.08C65,-106.12 65,-137.8 65,-137.8 65,-137.8 240.1,-137.8 240.1,-137.8"/>
<polygon fill="black" stroke="black" points="240.1,-141.3 250.1,-137.8 240.1,-134.3 240.1,-141.3"/>
</g>
</g>
</svg>
