<?xml version="1.0" encoding="UTF-8" standalone="no"?>
<!DOCTYPE svg PUBLIC "-//W3C//DTD SVG 1.1//EN"
 "http://www.w3.org/Graphics/SVG/1.1/DTD/svg11.dtd">
<!-- Generated by graphviz version 5.0.0 (20220707.1540)
 -->
<!-- Title: dependencies Pages: 1 -->
<svg width="432pt" height="247pt"
 viewBox="0.00 0.00 432.00 246.80" xmlns="http://www.w3.org/2000/svg" xmlns:xlink="http://www.w3.org/1999/xlink">
<g id="graph0" class="graph" transform="scale(1 1) rotate(0) translate(4 242.8)">
<title>dependencies</title>
<polygon fill="white" stroke="transparent" points="-4,4 -4,-242.8 428,-242.8 428,4 -4,4"/>
<text text-anchor="middle" x="212" y="-8.2" font-family="sans-serif" font-size="14.00">dependencies</text>
<g id="clust1" class="cluster">
<title>cluster_UtilModule</title>
<polygon fill="none" stroke="black" stroke-dasharray="1,5" points="8,-32.8 8,-230.8 416,-230.8 416,-32.8 8,-32.8"/>
</g>
<g id="clust6" class="cluster">
<title>cluster_UtilModule_exports</title>
<polygon fill="none" stroke="black" points="78,-170.8 78,-222.8 347,-222.8 347,-170.8 78,-170.8"/>
</g>
<g id="clust2" class="cluster">
<title>cluster_UtilModule_declarations</title>
<polygon fill="none" stroke="black" points="146,-40.8 146,-92.8 408,-92.8 408,-40.8 146,-40.8"/>
</g>
<g id="clust5" class="cluster">
<title>cluster_UtilModule_imports</title>
<polygon fill="none" stroke="black" points="16,-40.8 16,-92.8 138,-92.8 138,-40.8 16,-40.8"/>
</g>
<!-- FilterMessagesPipe -->
<g id="node1" class="node">
<title>FilterMessagesPipe</title>
<polygon fill="#ffffb3" stroke="black" points="399.66,-84.8 274.34,-84.8 274.34,-48.8 399.66,-48.8 399.66,-84.8"/>
<text text-anchor="middle" x="337" y="-62.6" font-family="Times,serif" font-size="14.00">FilterMessagesPipe</text>
</g>
<!-- UtilModule -->
<g id="node3" class="node">
<title>UtilModule</title>
<polygon fill="#8dd3c7" stroke="black" points="245.83,-149.8 242.83,-153.8 221.83,-153.8 218.83,-149.8 164.17,-149.8 164.17,-113.8 245.83,-113.8 245.83,-149.8"/>
<text text-anchor="middle" x="205" y="-127.6" font-family="Times,serif" font-size="14.00">UtilModule</text>
</g>
<!-- FilterMessagesPipe&#45;&gt;UtilModule -->
<g id="edge1" class="edge">
<title>FilterMessagesPipe&#45;&gt;UtilModule</title>
<path fill="none" stroke="black" d="M306.38,-84.91C306.38,-104.14 306.38,-131.8 306.38,-131.8 306.38,-131.8 255.94,-131.8 255.94,-131.8"/>
<polygon fill="black" stroke="black" points="255.94,-128.3 245.94,-131.8 255.94,-135.3 255.94,-128.3"/>
</g>
<!-- ZoomDirective -->
<g id="node2" class="node">
<title>ZoomDirective</title>
<polygon fill="#ffffb3" stroke="black" points="255.53,-84.8 154.47,-84.8 154.47,-48.8 255.53,-48.8 255.53,-84.8"/>
<text text-anchor="middle" x="205" y="-62.6" font-family="Times,serif" font-size="14.00">ZoomDirective</text>
</g>
<!-- ZoomDirective&#45;&gt;UtilModule -->
<g id="edge2" class="edge">
<title>ZoomDirective&#45;&gt;UtilModule</title>
<path fill="none" stroke="black" d="M205,-84.91C205,-84.91 205,-103.79 205,-103.79"/>
<polygon fill="black" stroke="black" points="201.5,-103.79 205,-113.79 208.5,-103.79 201.5,-103.79"/>
</g>
<!-- FilterMessagesPipe  -->
<g id="node5" class="node">
<title>FilterMessagesPipe </title>
<polygon fill="#fb8072" stroke="black" points="338.66,-214.8 209.34,-214.8 209.34,-178.8 338.66,-178.8 338.66,-214.8"/>
<text text-anchor="middle" x="274" y="-192.6" font-family="Times,serif" font-size="14.00">FilterMessagesPipe </text>
</g>
<!-- UtilModule&#45;&gt;FilterMessagesPipe  -->
<g id="edge4" class="edge">
<title>UtilModule&#45;&gt;FilterMessagesPipe </title>
<path fill="none" stroke="black" stroke-dasharray="5,2" d="M227.54,-149.91C227.54,-149.91 227.54,-168.79 227.54,-168.79"/>
<polygon fill="black" stroke="black" points="224.04,-168.79 227.54,-178.79 231.04,-168.79 224.04,-168.79"/>
</g>
<!-- ZoomDirective  -->
<g id="node6" class="node">
<title>ZoomDirective </title>
<polygon fill="#fb8072" stroke="black" points="191.52,-214.8 86.48,-214.8 86.48,-178.8 191.52,-178.8 191.52,-214.8"/>
<text text-anchor="middle" x="139" y="-192.6" font-family="Times,serif" font-size="14.00">ZoomDirective </text>
</g>
<!-- UtilModule&#45;&gt;ZoomDirective  -->
<g id="edge5" class="edge">
<title>UtilModule&#45;&gt;ZoomDirective </title>
<path fill="none" stroke="black" stroke-dasharray="5,2" d="M177.92,-149.91C177.92,-149.91 177.92,-168.79 177.92,-168.79"/>
<polygon fill="black" stroke="black" points="174.42,-168.79 177.92,-178.79 181.42,-168.79 174.42,-168.79"/>
</g>
<!-- ServicesModule -->
<g id="node4" class="node">
<title>ServicesModule</title>
<polygon fill="#8dd3c7" stroke="black" points="130.48,-84.8 127.48,-88.8 106.48,-88.8 103.48,-84.8 23.52,-84.8 23.52,-48.8 130.48,-48.8 130.48,-84.8"/>
<text text-anchor="middle" x="77" y="-62.6" font-family="Times,serif" font-size="14.00">ServicesModule</text>
</g>
<!-- ServicesModule&#45;&gt;UtilModule -->
<g id="edge3" class="edge">
<title>ServicesModule&#45;&gt;UtilModule</title>
<path fill="none" stroke="black" d="M108.49,-84.91C108.49,-104.14 108.49,-131.8 108.49,-131.8 108.49,-131.8 154.07,-131.8 154.07,-131.8"/>
<polygon fill="black" stroke="black" points="154.07,-135.3 164.07,-131.8 154.07,-128.3 154.07,-135.3"/>
</g>
</g>
</svg>
