<?xml version="1.0" encoding="UTF-8" standalone="no"?>
<!DOCTYPE svg PUBLIC "-//W3C//DTD SVG 1.1//EN"
 "http://www.w3.org/Graphics/SVG/1.1/DTD/svg11.dtd">
<!-- Generated by graphviz version 5.0.0 (20220707.1540)
 -->
<!-- Title: dependencies Pages: 1 -->
<svg width="1522pt" height="467pt"
 viewBox="0.00 0.00 1522.00 466.80" xmlns="http://www.w3.org/2000/svg" xmlns:xlink="http://www.w3.org/1999/xlink">
<g id="graph0" class="graph" transform="scale(1 1) rotate(0) translate(4 462.8)">
<title>dependencies</title>
<polygon fill="white" stroke="transparent" points="-4,4 -4,-462.8 1518,-462.8 1518,4 -4,4"/>
<text text-anchor="middle" x="757" y="-8.2" font-family="sans-serif" font-size="14.00">dependencies</text>
<g id="clust1" class="cluster">
<title>cluster_AppModule</title>
<polygon fill="none" stroke="black" stroke-dasharray="1,5" points="8,-108.8 8,-450.8 475,-450.8 475,-108.8 8,-108.8"/>
</g>
<g id="clust2" class="cluster">
<title>cluster_AppModule_declarations</title>
<polygon fill="none" stroke="black" points="68,-246.8 68,-298.8 190,-298.8 190,-246.8 68,-246.8"/>
</g>
<g id="clust4" class="cluster">
<title>cluster_AppModule_imports</title>
<polygon fill="none" stroke="black" points="198,-116.8 198,-298.8 467,-298.8 467,-116.8 198,-116.8"/>
</g>
<g id="clust6" class="cluster">
<title>cluster_AppModule_bootstrap</title>
<polygon fill="none" stroke="black" points="16,-390.8 16,-442.8 140,-442.8 140,-390.8 16,-390.8"/>
</g>
<g id="clust14" class="cluster">
<title>cluster_PageModule</title>
<polygon fill="none" stroke="black" stroke-dasharray="1,5" points="483,-314.8 483,-382.8 1506,-382.8 1506,-314.8 483,-314.8"/>
</g>
<g id="clust15" class="cluster">
<title>cluster_PageModule_declarations</title>
<polygon fill="none" stroke="black" points="1004,-322.8 1004,-374.8 1498,-374.8 1498,-322.8 1004,-322.8"/>
</g>
<g id="clust20" class="cluster">
<title>cluster_PageModule_exports</title>
<polygon fill="none" stroke="black" points="491,-322.8 491,-374.8 996,-374.8 996,-322.8 491,-322.8"/>
</g>
<g id="clust23" class="cluster">
<title>cluster_ServicesModule</title>
<polygon fill="none" stroke="black" stroke-dasharray="1,5" points="316,-32.8 316,-100.8 496,-100.8 496,-32.8 316,-32.8"/>
</g>
<g id="clust28" class="cluster">
<title>cluster_ServicesModule_providers</title>
<polygon fill="none" stroke="black" points="324,-40.8 324,-92.8 488,-92.8 488,-40.8 324,-40.8"/>
</g>
<g id="clust29" class="cluster">
<title>cluster_UtilModule</title>
<polygon fill="none" stroke="black" stroke-dasharray="1,5" points="483,-238.8 483,-306.8 1038,-306.8 1038,-238.8 483,-238.8"/>
</g>
<g id="clust30" class="cluster">
<title>cluster_UtilModule_declarations</title>
<polygon fill="none" stroke="black" points="768,-246.8 768,-298.8 1030,-298.8 1030,-246.8 768,-246.8"/>
</g>
<g id="clust34" class="cluster">
<title>cluster_UtilModule_exports</title>
<polygon fill="none" stroke="black" points="491,-246.8 491,-298.8 760,-298.8 760,-246.8 491,-246.8"/>
</g>
<!-- AppComponent -->
<g id="node1" class="node">
<title>AppComponent</title>
<polygon fill="#ffffb3" stroke="black" points="181.94,-290.8 76.06,-290.8 76.06,-254.8 181.94,-254.8 181.94,-290.8"/>
<text text-anchor="middle" x="129" y="-268.6" font-family="Times,serif" font-size="14.00">AppComponent</text>
</g>
<!-- AppModule -->
<g id="node2" class="node">
<title>AppModule</title>
<polygon fill="#8dd3c7" stroke="black" points="109.66,-366.8 106.66,-370.8 85.66,-370.8 82.66,-366.8 26.34,-366.8 26.34,-330.8 109.66,-330.8 109.66,-366.8"/>
<text text-anchor="middle" x="68" y="-344.6" font-family="Times,serif" font-size="14.00">AppModule</text>
</g>
<!-- AppComponent&#45;&gt;AppModule -->
<g id="edge1" class="edge">
<title>AppComponent&#45;&gt;AppModule</title>
<path fill="none" stroke="black" d="M93.06,-290.81C93.06,-290.81 93.06,-320.65 93.06,-320.65"/>
<polygon fill="black" stroke="black" points="89.56,-320.65 93.06,-330.65 96.56,-320.65 89.56,-320.65"/>
</g>
<!-- AppComponent  -->
<g id="node7" class="node">
<title>AppComponent </title>
<polygon fill="#80b1d3" stroke="black" points="132.44,-434.8 23.56,-434.8 23.56,-398.8 132.44,-398.8 132.44,-434.8"/>
<text text-anchor="middle" x="78" y="-412.6" font-family="Times,serif" font-size="14.00">AppComponent </text>
</g>
<!-- AppModule&#45;&gt;AppComponent  -->
<g id="edge6" class="edge">
<title>AppModule&#45;&gt;AppComponent </title>
<path fill="none" stroke="black" stroke-dasharray="1,5" d="M68,-367.02C68,-367.02 68,-388.53 68,-388.53"/>
<polygon fill="black" stroke="black" points="64.5,-388.53 68,-398.53 71.5,-388.53 64.5,-388.53"/>
</g>
<!-- AppRoutingModule -->
<g id="node3" class="node">
<title>AppRoutingModule</title>
<polygon fill="#8dd3c7" stroke="black" points="334.28,-160.8 331.28,-164.8 310.28,-164.8 307.28,-160.8 205.72,-160.8 205.72,-124.8 334.28,-124.8 334.28,-160.8"/>
<text text-anchor="middle" x="270" y="-138.6" font-family="Times,serif" font-size="14.00">AppRoutingModule</text>
</g>
<!-- AppRoutingModule&#45;&gt;AppModule -->
<g id="edge2" class="edge">
<title>AppRoutingModule&#45;&gt;AppModule</title>
<path fill="none" stroke="black" d="M205.52,-142.8C138.37,-142.8 42.87,-142.8 42.87,-142.8 42.87,-142.8 42.87,-320.52 42.87,-320.52"/>
<polygon fill="black" stroke="black" points="39.37,-320.52 42.87,-330.52 46.37,-320.52 39.37,-320.52"/>
</g>
<!-- PageModule -->
<g id="node4" class="node">
<title>PageModule</title>
<polygon fill="#8dd3c7" stroke="black" points="459.27,-290.8 456.27,-294.8 435.27,-294.8 432.27,-290.8 372.73,-290.8 372.73,-254.8 459.27,-254.8 459.27,-290.8"/>
<text text-anchor="middle" x="416" y="-268.6" font-family="Times,serif" font-size="14.00">PageModule</text>
</g>
<!-- PageModule&#45;&gt;AppModule -->
<g id="edge3" class="edge">
<title>PageModule&#45;&gt;AppModule</title>
<path fill="none" stroke="black" d="M437.69,-290.81C437.69,-313.29 437.69,-348.8 437.69,-348.8 437.69,-348.8 119.69,-348.8 119.69,-348.8"/>
<polygon fill="black" stroke="black" points="119.69,-345.3 109.69,-348.8 119.69,-352.3 119.69,-345.3"/>
</g>
<!-- PageHomeComponent  -->
<g id="node11" class="node">
<title>PageHomeComponent </title>
<polygon fill="#fb8072" stroke="black" points="645.26,-366.8 498.74,-366.8 498.74,-330.8 645.26,-330.8 645.26,-366.8"/>
<text text-anchor="middle" x="572" y="-344.6" font-family="Times,serif" font-size="14.00">PageHomeComponent </text>
</g>
<!-- PageModule&#45;&gt;PageHomeComponent  -->
<g id="edge12" class="edge">
<title>PageModule&#45;&gt;PageHomeComponent </title>
<path fill="none" stroke="black" stroke-dasharray="5,2" d="M448.54,-290.83C448.54,-315.78 448.54,-357.8 448.54,-357.8 448.54,-357.8 488.75,-357.8 488.75,-357.8"/>
<polygon fill="black" stroke="black" points="488.75,-361.3 498.75,-357.8 488.75,-354.3 488.75,-361.3"/>
</g>
<!-- PageLoginComponent  -->
<g id="node12" class="node">
<title>PageLoginComponent </title>
<polygon fill="#fb8072" stroke="black" points="987.99,-366.8 842.01,-366.8 842.01,-330.8 987.99,-330.8 987.99,-366.8"/>
<text text-anchor="middle" x="915" y="-344.6" font-family="Times,serif" font-size="14.00">PageLoginComponent </text>
</g>
<!-- PageModule&#45;&gt;PageLoginComponent  -->
<g id="edge13" class="edge">
<title>PageModule&#45;&gt;PageLoginComponent </title>
<path fill="none" stroke="black" stroke-dasharray="5,2" d="M426.85,-290.84C426.85,-303.36 426.85,-317.8 426.85,-317.8 426.85,-317.8 860.01,-317.8 860.01,-317.8 860.01,-317.8 860.01,-320.77 860.01,-320.77"/>
<polygon fill="black" stroke="black" points="856.51,-320.77 860.01,-330.77 863.51,-320.77 856.51,-320.77"/>
</g>
<!-- PageMessageComponent  -->
<g id="node13" class="node">
<title>PageMessageComponent </title>
<polygon fill="#fb8072" stroke="black" points="824.53,-366.8 663.47,-366.8 663.47,-330.8 824.53,-330.8 824.53,-366.8"/>
<text text-anchor="middle" x="744" y="-344.6" font-family="Times,serif" font-size="14.00">PageMessageComponent </text>
</g>
<!-- PageModule&#45;&gt;PageMessageComponent  -->
<g id="edge14" class="edge">
<title>PageModule&#45;&gt;PageMessageComponent </title>
<path fill="none" stroke="black" stroke-dasharray="5,2" d="M416,-290.99C416,-305.98 416,-324.8 416,-324.8 416,-324.8 707.53,-324.8 707.53,-324.8 707.53,-324.8 707.53,-325.38 707.53,-325.38"/>
<polygon fill="black" stroke="black" points="704.03,-320.61 707.53,-330.61 711.03,-320.61 704.03,-320.61"/>
</g>
<!-- ServicesModule -->
<g id="node5" class="node">
<title>ServicesModule</title>
<polygon fill="#8dd3c7" stroke="black" points="459.48,-160.8 456.48,-164.8 435.48,-164.8 432.48,-160.8 352.52,-160.8 352.52,-124.8 459.48,-124.8 459.48,-160.8"/>
<text text-anchor="middle" x="406" y="-138.6" font-family="Times,serif" font-size="14.00">ServicesModule</text>
</g>
<!-- ServicesModule&#45;&gt;AppModule -->
<g id="edge4" class="edge">
<title>ServicesModule&#45;&gt;AppModule</title>
<path fill="none" stroke="black" d="M359.21,-160.98C359.21,-209.75 359.21,-339.8 359.21,-339.8 359.21,-339.8 119.72,-339.8 119.72,-339.8"/>
<polygon fill="black" stroke="black" points="119.72,-336.3 109.72,-339.8 119.72,-343.3 119.72,-336.3"/>
</g>
<!-- ServicesModule&#45;&gt;PageModule -->
<g id="edge10" class="edge">
<title>ServicesModule&#45;&gt;PageModule</title>
<path fill="none" stroke="black" d="M365.91,-160.88C365.91,-196.6 365.91,-272.8 365.91,-272.8 365.91,-272.8 366.57,-272.8 366.57,-272.8"/>
<polygon fill="black" stroke="black" points="362.46,-276.3 372.46,-272.8 362.46,-269.3 362.46,-276.3"/>
</g>
<!-- UtilModule -->
<g id="node6" class="node">
<title>UtilModule</title>
<polygon fill="#8dd3c7" stroke="black" points="458.83,-225.8 455.83,-229.8 434.83,-229.8 431.83,-225.8 377.17,-225.8 377.17,-189.8 458.83,-189.8 458.83,-225.8"/>
<text text-anchor="middle" x="418" y="-203.6" font-family="Times,serif" font-size="14.00">UtilModule</text>
</g>
<!-- ServicesModule&#45;&gt;UtilModule -->
<g id="edge18" class="edge">
<title>ServicesModule&#45;&gt;UtilModule</title>
<path fill="none" stroke="black" d="M418,-160.91C418,-160.91 418,-179.79 418,-179.79"/>
<polygon fill="black" stroke="black" points="414.5,-179.79 418,-189.79 421.5,-179.79 414.5,-179.79"/>
</g>
<!-- UtilModule&#45;&gt;AppModule -->
<g id="edge5" class="edge">
<title>UtilModule&#45;&gt;AppModule</title>
<path fill="none" stroke="black" d="M377.23,-207.8C283.29,-207.8 59.58,-207.8 59.58,-207.8 59.58,-207.8 59.58,-320.66 59.58,-320.66"/>
<polygon fill="black" stroke="black" points="56.08,-320.66 59.58,-330.66 63.08,-320.66 56.08,-320.66"/>
</g>
<!-- UtilModule&#45;&gt;PageModule -->
<g id="edge11" class="edge">
<title>UtilModule&#45;&gt;PageModule</title>
<path fill="none" stroke="black" d="M418,-225.91C418,-225.91 418,-244.79 418,-244.79"/>
<polygon fill="black" stroke="black" points="414.5,-244.79 418,-254.79 421.5,-244.79 414.5,-244.79"/>
</g>
<!-- FilterMessagesPipe  -->
<g id="node17" class="node">
<title>FilterMessagesPipe </title>
<polygon fill="#fb8072" stroke="black" points="751.66,-290.8 622.34,-290.8 622.34,-254.8 751.66,-254.8 751.66,-290.8"/>
<text text-anchor="middle" x="687" y="-268.6" font-family="Times,serif" font-size="14.00">FilterMessagesPipe </text>
</g>
<!-- UtilModule&#45;&gt;FilterMessagesPipe  -->
<g id="edge19" class="edge">
<title>UtilModule&#45;&gt;FilterMessagesPipe </title>
<path fill="none" stroke="black" stroke-dasharray="5,2" d="M458.86,-211.8C534.11,-211.8 687,-211.8 687,-211.8 687,-211.8 687,-244.5 687,-244.5"/>
<polygon fill="black" stroke="black" points="683.5,-244.5 687,-254.5 690.5,-244.5 683.5,-244.5"/>
</g>
<!-- ZoomDirective  -->
<g id="node18" class="node">
<title>ZoomDirective </title>
<polygon fill="#fb8072" stroke="black" points="604.52,-290.8 499.48,-290.8 499.48,-254.8 604.52,-254.8 604.52,-290.8"/>
<text text-anchor="middle" x="552" y="-268.6" font-family="Times,serif" font-size="14.00">ZoomDirective </text>
</g>
<!-- UtilModule&#45;&gt;ZoomDirective  -->
<g id="edge20" class="edge">
<title>UtilModule&#45;&gt;ZoomDirective </title>
<path fill="none" stroke="black" stroke-dasharray="5,2" d="M458.93,-218.8C498.34,-218.8 552,-218.8 552,-218.8 552,-218.8 552,-244.52 552,-244.52"/>
<polygon fill="black" stroke="black" points="548.5,-244.52 552,-254.52 555.5,-244.52 548.5,-244.52"/>
</g>
<!-- PageHomeComponent -->
<g id="node8" class="node">
<title>PageHomeComponent</title>
<polygon fill="#ffffb3" stroke="black" points="1154.26,-366.8 1011.74,-366.8 1011.74,-330.8 1154.26,-330.8 1154.26,-366.8"/>
<text text-anchor="middle" x="1083" y="-344.6" font-family="Times,serif" font-size="14.00">PageHomeComponent</text>
</g>
<!-- PageHomeComponent&#45;&gt;PageModule -->
<g id="edge7" class="edge">
<title>PageHomeComponent&#45;&gt;PageModule</title>
<path fill="none" stroke="black" d="M1016.72,-330.69C1016.72,-320.9 1016.72,-310.8 1016.72,-310.8 1016.72,-310.8 383.46,-310.8 383.46,-310.8 383.46,-310.8 383.46,-300.91 383.46,-300.91"/>
<polygon fill="black" stroke="black" points="386.96,-300.91 383.46,-290.91 379.96,-300.91 386.96,-300.91"/>
</g>
<!-- PageLoginComponent -->
<g id="node9" class="node">
<title>PageLoginComponent</title>
<polygon fill="#ffffb3" stroke="black" points="1489.99,-366.8 1348.01,-366.8 1348.01,-330.8 1489.99,-330.8 1489.99,-366.8"/>
<text text-anchor="middle" x="1419" y="-344.6" font-family="Times,serif" font-size="14.00">PageLoginComponent</text>
</g>
<!-- PageLoginComponent&#45;&gt;PageModule -->
<g id="edge8" class="edge">
<title>PageLoginComponent&#45;&gt;PageModule</title>
<path fill="none" stroke="black" d="M1419,-330.68C1419,-316.02 1419,-297.8 1419,-297.8 1419,-297.8 405.15,-297.8 405.15,-297.8 405.15,-297.8 405.15,-297.12 405.15,-297.12"/>
<polygon fill="black" stroke="black" points="408.65,-300.97 405.15,-290.97 401.65,-300.97 408.65,-300.97"/>
</g>
<!-- PageMessageComponent -->
<g id="node10" class="node">
<title>PageMessageComponent</title>
<polygon fill="#ffffb3" stroke="black" points="1329.53,-366.8 1172.47,-366.8 1172.47,-330.8 1329.53,-330.8 1329.53,-366.8"/>
<text text-anchor="middle" x="1251" y="-344.6" font-family="Times,serif" font-size="14.00">PageMessageComponent</text>
</g>
<!-- PageMessageComponent&#45;&gt;PageModule -->
<g id="edge9" class="edge">
<title>PageMessageComponent&#45;&gt;PageModule</title>
<path fill="none" stroke="black" d="M1251,-330.65C1251,-318.53 1251,-304.8 1251,-304.8 1251,-304.8 394.31,-304.8 394.31,-304.8 394.31,-304.8 394.31,-301.04 394.31,-301.04"/>
<polygon fill="black" stroke="black" points="397.81,-301.04 394.31,-291.04 390.81,-301.04 397.81,-301.04"/>
</g>
<!-- MessageService -->
<g id="node14" class="node">
<title>MessageService</title>
<ellipse fill="#fdb462" stroke="black" cx="406" cy="-66.8" rx="73.57" ry="18"/>
<text text-anchor="middle" x="406" y="-62.6" font-family="Times,serif" font-size="14.00">MessageService</text>
</g>
<!-- MessageService&#45;&gt;ServicesModule -->
<g id="edge15" class="edge">
<title>MessageService&#45;&gt;ServicesModule</title>
<path fill="none" stroke="black" d="M406,-84.81C406,-84.81 406,-114.65 406,-114.65"/>
<polygon fill="black" stroke="black" points="402.5,-114.65 406,-124.65 409.5,-114.65 402.5,-114.65"/>
</g>
<!-- FilterMessagesPipe -->
<g id="node15" class="node">
<title>FilterMessagesPipe</title>
<polygon fill="#ffffb3" stroke="black" points="1021.66,-290.8 896.34,-290.8 896.34,-254.8 1021.66,-254.8 1021.66,-290.8"/>
<text text-anchor="middle" x="959" y="-268.6" font-family="Times,serif" font-size="14.00">FilterMessagesPipe</text>
</g>
<!-- FilterMessagesPipe&#45;&gt;UtilModule -->
<g id="edge16" class="edge">
<title>FilterMessagesPipe&#45;&gt;UtilModule</title>
<path fill="none" stroke="black" d="M959,-254.64C959,-232.45 959,-197.8 959,-197.8 959,-197.8 469.11,-197.8 469.11,-197.8"/>
<polygon fill="black" stroke="black" points="469.11,-194.3 459.11,-197.8 469.11,-201.3 469.11,-194.3"/>
</g>
<!-- ZoomDirective -->
<g id="node16" class="node">
<title>ZoomDirective</title>
<polygon fill="#ffffb3" stroke="black" points="877.53,-290.8 776.47,-290.8 776.47,-254.8 877.53,-254.8 877.53,-290.8"/>
<text text-anchor="middle" x="827" y="-268.6" font-family="Times,serif" font-size="14.00">ZoomDirective</text>
</g>
<!-- ZoomDirective&#45;&gt;UtilModule -->
<g id="edge17" class="edge">
<title>ZoomDirective&#45;&gt;UtilModule</title>
<path fill="none" stroke="black" d="M827,-254.58C827,-234.43 827,-204.8 827,-204.8 827,-204.8 468.71,-204.8 468.71,-204.8"/>
<polygon fill="black" stroke="black" points="468.71,-201.3 458.71,-204.8 468.71,-208.3 468.71,-201.3"/>
</g>
</g>
</svg>
